<svg fill="none" height="402" viewBox="0 0 400 402" width="400" xmlns="http://www.w3.org/2000/svg"><path d="m349.876 339.773c.418-.811.621-1.25.608-1.315-.041-.175-.124-.337-.245-.473-.12-.136-.273-.243-.449-.314s-.37-.103-.567-.094c-.198.009-.393.058-.573.144-1.497.733-2.991 1.447-4.482 2.14-.915.432-1.817.949-2.706 1.551-.817.557-1.657 1.057-2.52 1.502-3.367 1.735-6.753 3.479-10.159 5.233-3.112 1.61-6.538 3.171-10.277 4.683-3.452 1.4-6.943 2.771-10.473 4.113-7.251 2.755-16.21 5.308-26.879 7.657-2.57.569-5.475.926-8.718 1.07-2.837.131-5.668.321-8.492.569-10.46.936-21.234.887-32.322-.147-2.745-.255-5.324-.451-7.737-.589-2.732-.157-5.331-.566-7.796-1.227-4.157-1.112-8.119-2.091-11.885-2.935-1.621-.367-3.265-.802-4.932-1.306-4.099-1.237-8.198-2.356-12.16-3.848-2.354-.89-4.733-1.692-7.139-2.405-2.268-.681-4.55-1.594-6.845-2.739-3.125-1.564-6.341-3.102-9.649-4.614-3.19-1.46-6.266-3.249-9.228-5.37-5.955-4.26-9.799-7.157-11.532-8.688-3.438-3.037-6.861-5.939-10.267-8.708-2.739-2.225-5.357-4.594-7.855-7.107-1.935-1.944-3.684-3.963-5.246-6.057-1.562-2.101-3.22-4.182-4.972-6.244-2.445-2.892-4.903-5.962-7.374-9.208-2.177-2.853-4.253-5.782-6.227-8.786-2.3208-3.547-4.1448-6.666-5.4719-9.356-4.2559-8.658-8.0672-17.968-11.4341-27.929-.7779-2.297-1.3728-4.663-1.7847-7.097-.4184-2.468-.8596-4.879-1.3238-7.236-.9087-4.627-1.6409-9.358-2.1966-14.195-.6963-6.135-.5492-12.153-.8924-18.2-.4903-8.646.1929-17.213 2.0495-25.701 2.1181-9.67 6.3348-19.585 9.718-29.156.9218-2.625 1.9089-4.994 2.9615-7.108 1.1571-2.336 2.275-4.699 3.3537-7.088 1.2486-2.775 2.7065-5.458 4.3738-8.05 1.85-2.873 3.393-5.543 4.628-8.01.144-.295.334-.939.569-1.934.079-.314.226-.596.441-.844l1.834-2.062c.157-.183.144-.347-.039-.491l-.226-.177c-.079-.064-.181-.095-.284-.088-.104.007-.201.053-.275.128-3.752 3.94-7.2889 8.053-10.6099 12.34-.2746.353-.2844.863-.5982 1.286-6.9886 9.509-12.2676 17.287-15.8371 23.334-4.5108 7.638-9.3388 17.821-14.4838 30.551-.5033 1.243-.9446 2.519-1.3238 3.828-.34 1.172-.7551 2.353-1.2454 3.544-.6668 1.63-1.2519 3.358-1.7553 5.184-2.8504 10.275-4.7201 20.733-5.6092 31.375-.4314 5.055-.3236 10.209-.5785 15.314-.1831 3.685-.2223 7.376-.1177 11.073.1111 3.881.317 7.425.6178 10.632.523 5.576 2.0135 12.991 4.4716 22.245 1.1768 4.418 2.2914 8.737 3.3439 12.959.5949 2.382 1.4579 4.761 2.5889 7.137 1.1637 2.441 2.1672 4.761 3.0105 6.96 1.4382 3.756 2.9941 7.147 4.6677 10.17 4.1513 7.494 7.8483 13.502 11.0909 18.024 2.177 3.03 4.6808 6.119 7.5115 9.267 1.8044 2.013 3.2361 4.202 5.0601 6.156 7.413 7.925 15.634 15.265 24.663 22.019 1.033.766 2.065 1.459 3.098 2.081 1.105.661 2.168 1.365 3.187 2.111 1.445 1.053 2.962 2.012 4.551 2.876 3.739 2.029 7.478 4.156 11.218 6.381 2.098 1.244 4.197 2.373 6.295 3.387.353.17.481.448.383.834-.059.236-.164.449-.314.638-.19.223-.245.465-.167.727.059.203.19.429.393.677-15.455-3.619-30.991-9.637-46.609-18.053-16.5729-8.927-31.1711-19.748-43.795-32.465-2.5365-2.552-5.1613-5.265-7.8744-8.138-2.7653-2.919-5.2888-5.821-7.5704-8.707-13.0619-16.526-23.1688-33.767-30.3208-51.726-9.83895-24.719-14.536122-50.341-14.0915735-76.867.2353495-13.861 1.7160835-27.192 4.4422235-39.994 2.18351-10.229 5.71705-21.414 10.60055-33.554 2.3273-5.792 5.2986-11.914 8.9138-18.367 8.453-15.0989 18.8574-29.4251 31.2133-42.979 10.1592-11.1226 21.4462-19.8106 33.6353-28.5673 11.186-8.0303 24.581-15.1443 40.186-21.342 30.223-12.00613 63.152-16.2667 96.013-12.90931 16.484 1.6787 33.086 6.90132 49.119 12.59511 6.315 2.2383 14.481 5.9327 24.496 11.0834 10.127 5.216 19.482 11.3352 28.065 18.3576 8.169 6.6853 16.661 13.7437 23.859 21.5482 3.981 4.3194 9.071 12.3399 5.334 17.9355-4.373 6.5676-10.159 6.0865-17.2 4.1918-14.905-4.0118-30.278-6.2337-46.118-6.6656-9.761-.2684-18.975-.1636-27.644.3141-22.319 1.2173-44.066 6.4497-65.241 15.6973-13.248 5.7822-25.447 14.1952-36.136 23.4522-3.007 2.605-7.227 6.79-12.66 12.556-2.255 2.396-4.157 4.798-5.707 7.206-2.226 3.446-5.011 6.342-6.57 10.19-1.314 3.22-2.818 6.257-4.511 9.11-1.412 2.376-2.51 4.902-3.295 7.579-2.072 7.074-3.795 14.339-5.168 21.793-2.34 12.743-2.405 25.266-.196 37.57 4.903 27.33 17.625 50.184 38.166 68.561 4.58 4.094 9.64 8.207 14.837 11.555 18.88 12.166 38.842 19.388 59.887 21.666 39.669 4.286 76.024-4.284 109.064-25.711 2.583-1.675 5.037-3.403 7.365-5.183 3.128-2.396 6.138-5.498 9.963-6.548 5.874-1.62 10.13.952 12.905 6.312 3.01 5.851.569 11.673-3.589 16.002-3.864 4.018-7.437 8.194-10.718 12.526-2.596 3.423-7.084 8.413-13.464 14.971z" fill="#ffc31a"/><path d="m350.106 339.718c-2.029 2.532-4.709 5.263-8.039 8.194-6.093 5.372-11.694 9.951-16.805 13.74-5.634 4.187-12.816 8.717-21.546 13.592-19.9 11.122-41.622 18.757-65.167 22.905-12.044 2.12-24.52 3.808-36.78 3.759-17.315-.069-34.6-3.102-51.444-7.204-.203-.248-.334-.474-.393-.677-.078-.262-.023-.504.167-.726.15-.19.255-.402.314-.638.098-.386-.029-.664-.383-.834-2.1-1.014-4.201-2.143-6.302-3.386-3.743-2.224-7.486-4.351-11.229-6.379-1.59-.863-3.108-1.822-4.554-2.875-1.021-.746-2.085-1.449-3.19-2.11-1.034-.622-2.068-1.315-3.102-2.081-9.037-6.752-17.266-14.089-24.687-22.012-1.8257-1.953-3.2589-4.141-5.065-6.153-2.8335-3.147-5.3398-6.235-7.5189-9.264-3.2457-4.521-6.9463-10.527-11.1016-18.018-1.6753-3.023-3.2327-6.412-4.6723-10.168-.8442-2.198-1.8487-4.517-3.0135-6.957-1.1321-2.375-1.9959-4.754-2.5914-7.135-1.0535-4.22-2.1692-8.538-3.3471-12.954-2.4605-9.251-3.9526-16.664-4.4761-22.238-.301-3.206-.5071-6.749-.6183-10.629-.1048-3.696-.0655-7.386.1177-11.069.2552-5.104.1473-10.256.5792-15.31.8899-10.638 2.7615-21.093 5.6146-31.365.5039-1.825 1.0896-3.552 1.757-5.181.4908-1.191.9064-2.372 1.2466-3.543.3796-1.309.8213-2.584 1.3252-3.827 5.15-12.726 9.9826-22.906 14.4979-30.541 3.573-6.045 8.8571-13.821 15.8525-23.327.3141-.422.324-.933.5988-1.286 3.3243-4.285 6.8647-8.397 10.6207-12.336.073-.075.171-.12.275-.128.103-.007.205.025.284.089l.226.177c.183.144.197.307.04.49l-1.836 2.061c-.216.249-.363.53-.442.844-.235.995-.425 1.639-.569 1.934-1.237 2.466-2.781 5.135-4.633 8.008-1.6688 2.59-3.1281 5.273-4.378 8.047-1.0797 2.388-2.1987 4.75-3.357 7.085-1.0535 2.114-2.0417 4.482-2.9644 7.106-3.3864 9.568-7.6072 19.48-9.7274 29.146-1.8585 8.486-2.5423 17.05-2.0515 25.693.3435 6.045.1963 12.061.8932 18.195.5563 4.834 1.2892 9.565 2.1988 14.19.4646 2.356.9063 4.766 1.3251 7.233.4123 2.434 1.0078 4.799 1.7865 7.095 3.3701 9.958 7.1851 19.265 11.4452 27.921 1.3284 2.688 3.1541 5.806 5.4775 9.352 1.976 3.003 4.054 5.931 6.233 8.783 2.473 3.245 4.934 6.314 7.381 9.206 1.754 2.061 3.413 4.141 4.977 6.241 1.564 2.094 3.314 4.112 5.251 6.055 2.5 2.513 5.121 4.881 7.863 7.105 3.409 2.768 6.835 5.67 10.277 8.705 1.734 1.531 5.582 4.426 11.543 8.685 2.965 2.12 6.044 3.91 9.237 5.369 3.311 1.511 6.531 3.048 9.659 4.612 2.297 1.145 4.58 2.058 6.851 2.738 2.408.713 4.79 1.515 7.146 2.404 3.966 1.492 8.069 2.611 12.172 3.847 1.668.504 3.314.939 4.937 1.306 3.769.844 7.735 1.822 11.897 2.934 2.467.661 5.068 1.07 7.803 1.227 2.415.137 4.997.333 7.745.589 11.098 1.033 21.883 1.082 32.353.147 2.827-.249 5.66-.439 8.5-.569 3.246-.144 6.155-.501 8.727-1.07 10.679-2.349 19.648-4.9 26.905-7.655 3.533-1.341 7.028-2.712 10.483-4.112 3.743-1.511 7.172-3.072 10.287-4.681 3.409-1.753 6.799-3.497 10.169-5.231.864-.445 1.705-.945 2.523-1.501.89-.602 1.793-1.119 2.709-1.551 1.492-.693 2.987-1.406 4.486-2.139.18-.087.376-.136.573-.145.198-.008.391.024.568.095.176.07.33.177.45.314.12.136.204.297.244.472.013.065-.189.504-.608 1.315z" fill="#fdae0e"/><path d="m225.535 271.646c-15.909-5.521-28.215-14.813-36.918-27.877-12.26-18.408-14.634-41.153-6.895-61.926 3.439-9.25 8.814-17.084 16.125-23.501 12.705-11.153 27.947-16.524 45.726-16.112 13.545.314 26.021 5.446 39.085 8.292 7.827 1.707 16.014 2.449 24.56 2.227 10.776-.275 20.545-3.297 29.307-9.067 2.38-1.57 5.257-3.709 8.631-6.417 10.711-8.606 24.158 4.435 17.9 15.877-1.55 2.832-3.439 5.203-5.669 7.114-5.13 4.395-10.22 9.047-15.517 12.677-13.182 9.008-29.316 15.955-45.343 16.23-8.602.157-17.203-.569-25.433-2.522-12.005-2.846-22.362-4.033-32.396 3.748-8.131 6.31-8.298 20.764-3.021 28.672 4.306 6.447 10.583 10.49 18.135 12.541 11.623 3.159 24.344 3.385 36.251 2.129 14.641-1.55 29.383-4.952 44.226-10.205 6.493-2.303 12.234-4.802 17.223-7.497 9.847-5.328 18.861-10.352 26.561-17.535 2.877-2.695 5.557-4.258 8.042-4.69 4.466-.785 8.014.7 10.642 4.455 6.787 9.704 1.413 14.689-5.924 21.597-25.887 24.394-56.077 41.382-90.569 50.966-21.571 5.992-41.636 7.519-60.193 4.582-4.525-.713-9.37-1.966-14.536-3.758z" fill="#ffc31a"/></svg>